Patient4_TMGait_0pt5_02_right_19_EMG.mot
version=1
nRows=29
nColumns=33
inDegrees=no
endheader
time	1LAddLong	2LGlutMax	3LGlutMed	4LIliopsoas	5LSemiMemb	6LBicFemLong	7LRecFem	8LVastMed	9LVastLat	10LGasMed	11LTibAnt	12lTibPost	13LPeroneusLong	14LSol	15LExtDigLong	16LFlexDigLong	17RAddLong	18RGlutMax	19RGlutMed	20RIliopsoas	21RSemiMemb	22RBicFemLong	23RRecFem	24RVastMed	25RVastLat	26RGasMed	27RTibAnt	28RTibPost	29RPeroneusLong	30RSol	31RExtDigLong	32RFlexDigLong
24.74	0.003815	-0.004883	-0.049133	0.007172	-0.002136	0.19623	0.017395	-0.021973	0.068054	-0.65582	0.007782	0.020142	-0.088806	-0.035706	0.000153	0.054474	0.014954	0.001221	-0.36011	0.15152	0.02533	-0.019684	0.11475	-0.061951	0.01236	-0.005798	0.013123	-0.005188	0.012665	0.018158	0.002289	-0.002747
24.741	-0.000153	-0.011444	-0.21469	-0.007172	-0.010376	0.34744	0.020142	-0.005798	0.000305	-0.25177	0.018005	0.014954	-0.20523	0.048828	-0.03067	0.079651	0.005341	-0.035248	-0.37598	0.046844	0.026398	-0.027161	0.018158	-0.13809	0.019226	-0.016632	-0.000763	-0.001373	0.093079	0.039825	0.001221	-0.00351
24.742	0	0.021667	-0.063019	-0.001831	-0.013275	0.35004	0.010986	0.006256	-0.011749	0.14816	0.024567	-0.016174	-0.26688	0.11978	-0.068054	0.001984	-0.000458	-0.11566	-0.56076	-0.015411	0.028076	-0.019073	-0.12985	-0.1088	0.008545	-0.019684	0.050507	-0.00946	0.020294	0.045166	-0.001831	-0.010834
24.743	-0.002899	0.042267	0.17777	-0.004578	-0.014496	0.44067	0.025482	0.009918	0.005035	0.066681	0.008392	-0.018921	0.060425	0.24704	-0.021515	-0.027008	0.006256	-0.067902	-0.44693	-0.051727	0.041809	-0.018463	-0.17136	-0.094604	0.009155	-0.015869	0.1738	-0.004578	0.043335	-0.027771	-0.000153	0.000153
24.744	-0.007172	0.044861	0.28198	-0.000305	-0.022736	0.51483	0.038605	0.005188	0.00412	-0.059814	0.014496	-0.005798	-0.13168	0.2623	0.01709	-0.018463	0.007324	-0.06897	-0.37796	-0.097504	0.034943	-0.001526	-0.15747	-0.10819	0.004272	-0.014496	0.40207	-0.000458	0.030212	-0.081329	-0.002747	-0.001526
24.745	0.010529	0.03952	0.14282	0.024109	-0.041199	0.18936	0.00824	0.001678	0.008698	-0.054169	0.019684	-0.008087	-0.16876	0.047302	0.024872	-0.023956	0.029907	-0.072479	-0.61264	-0.045471	0.026093	-0.019989	-0.08316	-0.11261	-0.002136	-0.00061	0.28748	-0.001373	0.046387	-0.10254	0	-0.005035
24.746	-0.002136	0.044403	0.026855	0.015259	-0.034485	0.027924	0.003204	0.002441	0.015869	-0.046234	0.038452	-0.011292	0.21805	-0.08194	0.016022	-0.022736	0.002899	-0.085907	-0.72357	-0.028839	-0.001373	-0.036621	-0.015869	-0.096436	-0.011292	0.003815	0.079193	0.001221	0.050049	-0.13138	-0.002441	-0.005798
24.747	0.00412	0.049896	0.042114	0.009613	-0.013885	-0.17227	0.015564	0.011902	0.033722	-0.058746	0.052643	-0.007324	0.028687	-0.003357	0.023499	-0.010223	0.016632	-0.052185	-0.63812	-0.030518	0.005188	-0.032959	0.055847	-0.10254	-0.000916	0.007019	-0.1413	-0.000458	0.022736	-0.24353	-0.000763	-0.002441
24.748	0.002289	0.054779	-0.016632	0.003357	0.035248	-0.21988	0.033417	0.002136	0.039368	-0.042572	0.031128	-0.016632	0.49393	0.078125	0.016479	-0.020905	0.027618	-0.098572	-0.52185	0.012665	-0.001678	-0.039978	0.085297	-0.12512	-0.002594	0.004578	-0.45349	-0.000305	0.047607	-0.18814	-0.000153	0.003204
24.749	0.003662	0.031738	-0.076141	-0.00824	0.028992	-0.23041	0.019836	0.001678	0.039368	0.024414	0.073242	-0.011749	0.64743	0.07782	0.033417	-0.025787	0.023651	-0.073395	-0.4776	-0.008087	-0.011902	-0.051117	0.062866	-0.11322	0.018311	-0.00473	0.17731	-0.002594	0.054169	-0.12543	-0.003052	0.001678
24.75	0.015564	-0.019226	-0.061493	-0.012665	0.032501	-0.56015	-0.029602	0.003662	0.053558	0.028381	-0.058746	-0.016327	0.27115	0.22492	0.088501	-0.02121	0.015106	-0.088654	-0.52628	-0.019226	-0.013428	-0.049744	0.23148	-0.11704	0.007019	0.00412	0.62057	0.005798	0.055695	-0.083313	-0.001831	0.000305
24.751	0.006104	-0.001678	0.060272	0	0.036926	-0.49606	-0.019073	-0.012207	0.05661	0.16907	-0.076904	-0.010834	-0.046234	0.19547	0.049286	-0.01236	0.011902	-0.093231	-0.63553	-0.022583	-0.012817	-0.042267	0.29404	-0.14221	-0.026398	0.002594	0.57404	-0.008087	0.06958	-0.049744	-0.003052	-0.00824
24.752	0.00885	-0.028534	0.068359	0.014496	0.026398	-0.29144	-0.01236	0.00351	0.028992	0.21515	0.006104	-0.004578	0.11566	0.1564	0.12558	-0.005188	0.007935	-0.11475	-0.60593	0.020142	-0.006714	-0.036011	0.3157	-0.19547	-0.010376	-0.007172	0.28976	-0.00824	0.080109	-0.051575	-0.002899	-0.014191
24.753	0.009003	-0.018616	-0.002441	-0.0177	0.045013	-0.074768	0.036774	0.00946	0.010529	0.23239	-0.028229	-0.012207	0.10208	-0.002747	0.043793	-0.017395	0.013275	-0.16495	-0.57083	0.04776	0.019379	-0.024567	0.2211	-0.18601	-0.018921	-0.008392	0.036011	-0.000763	0.035706	0.02121	-0.002594	-0.015717
24.754	-0.001831	-0.01358	-0.065155	-0.013733	0.027313	0.056915	0.030823	0.00824	-0.000153	0.62286	-0.04303	-0.012207	-0.51788	-0.061646	-0.10468	-0.024414	0.001678	-0.1622	-0.48966	0.001984	0.019073	-0.004272	0.081024	-0.18127	0.021057	-0.010071	-0.35629	-0.01236	-0.018616	0.13596	-0.002747	-0.014648
24.755	-0.019073	-0.004578	-0.22446	-0.015717	-0.023651	0.25131	0.054474	0.014191	-0.025787	0.42389	0.026093	-0.016937	0.11154	-0.15747	-0.30533	-0.006104	-0.02182	-0.16663	-0.34073	-0.034027	0.026245	-0.023346	-0.059662	-0.18875	0.03067	-0.011902	-1.0188	-0.006561	-0.016174	0.17746	-0.007477	-0.011139
24.756	-0.026245	-0.026398	-0.233	-0.014343	-0.093384	0.23254	0.063477	0.008087	-0.03479	-0.19241	0.06012	-0.012665	0.14008	-0.052032	-0.24353	-0.016785	-0.011597	-0.112	-0.29266	-0.011139	0.041809	-0.014191	0.034485	-0.18494	0.039673	-0.009613	-0.42328	0.000153	-0.09201	0.10681	0	-0.007019
24.757	-0.016327	-0.062714	-0.20569	-0.009766	-0.11932	0.057526	0.05188	0.01709	-0.041656	-0.30045	0.006714	-0.015106	-0.018158	0.046082	-0.071106	-0.006256	-0.022125	-0.10376	-0.15778	-0.019073	0.018463	-0.002136	0.11124	-0.18204	0.021515	-0.006714	0.001831	-0.000305	-0.10819	0.090485	-0.001068	-0.012665
24.758	-0.00061	-0.047913	-0.11093	0.005646	-0.006866	-0.053406	0.011292	0.007629	-0.058289	-0.27084	-0.074921	0.000153	-0.7225	-0.006409	-0.034485	-0.019684	-0.007782	-0.014496	-0.031738	-0.013885	-0.029144	0.013733	0.069122	-0.11948	0.033875	-0.007324	0.20996	0	-0.047607	0.067444	-0.001221	-0.014648
24.759	0.010071	-0.074005	-0.13306	0.010834	0.041351	-0.087128	0.006866	0.003052	-0.043945	-0.16998	-0.050507	-0.001984	-0.6752	-0.002899	-0.019531	-0.033264	0.006714	-0.058136	-0.19302	0.066528	-0.013733	-0.014648	0.036926	-0.048981	0.025177	-0.009308	0.18265	-0.00412	0.020599	0.004883	0.003815	-0.014954
24.76	0.028839	-0.059662	-0.050354	0.017853	0.095215	-0.33768	-0.0354	0.004272	-0.003967	-0.36835	-0.023651	-0.001831	0.24475	0.049744	0.074158	-0.003967	0.02121	-0.11063	-0.29297	0.094147	0.006714	-0.012512	-0.034943	-0.049286	0.013885	-0.011139	-0.34332	0.003204	0.089569	-0.051575	0.000153	-0.006866
24.761	0.023041	-0.04303	-0.031586	0.003967	0.080566	-0.24536	-0.001068	0.007324	-0.016785	-0.39734	0.018311	0.073853	0.60303	0.03067	0.07782	0.017853	0.026855	-0.093384	-0.6102	0.057983	0.000458	-0.013123	-0.1651	-0.008087	0.02121	0.003052	-0.7106	0.002747	0.14832	-0.068665	-0.001526	-0.002441
24.762	0.00473	-0.027618	-0.048981	0.008392	0.043182	-0.083923	0.006104	-0.005341	-0.001831	-0.21591	0.052795	0.063324	0.19348	-0.008087	0.12451	0.007935	0.025787	-0.075836	-0.56442	-0.025024	0.003662	-0.029144	-0.19272	0.059814	0.030823	0.00061	-0.2594	0.000458	-0.029449	-0.13733	-0.001678	0.003967
24.763	0.021057	-0.010986	-0.028229	0.010376	0.002289	-0.027771	-0.016174	0.007019	-0.015564	-0.12726	0.035248	-0.13153	-0.089111	0.005798	0.097809	0.010834	-0.005188	0.008087	-0.52902	-0.032196	0.014038	-0.011292	-0.046387	0.12909	0.033264	0.002289	0.051422	0.002136	-0.10483	-0.1918	0.004883	-0.003357
24.764	0.018463	-0.034485	-0.068054	0.010986	0.032806	0.027771	0.001526	0.010986	-0.056458	-0.11536	0.047913	-0.05249	0.11169	0.009308	-0.015106	0.000153	-0.028687	-0.059052	-0.50064	-0.019989	-0.007782	-0.022278	0.027313	0.12619	0.032959	0.00061	0.040436	0.003662	-0.028229	-0.16769	-0.001831	0.000458
24.765	0.015717	-0.041656	-0.11627	0.02121	0.065002	-0.079498	-0.011902	0.01297	-0.12665	-0.012512	0.052948	-0.047607	0.15823	-0.006104	-0.084229	0.000305	-0.031128	-0.090332	-0.38361	0.011902	-0.011139	-0.036621	0.10559	0.022125	0.03067	-0.001068	0.18753	0.003052	-0.09079	-0.17319	0	-0.00473
24.766	0.00885	-0.042267	-0.15442	0.012665	0.095978	-0.1294	-0.041656	0.00351	-0.15289	0.17853	0.017548	-0.056915	0.018463	0.014038	-0.003662	0.001678	-0.017548	-0.06897	-0.45242	0.021057	-0.012512	-0.019226	0.12146	-0.022278	0.015869	-0.002441	0.26398	0.001526	-0.33569	-0.090485	-0.001831	-0.006714
24.767	0.001373	-0.018005	-0.10117	0.006866	0.023956	0.03952	-0.055389	0.009308	-0.12466	0.27176	0	-0.034637	-0.177	-0.11673	0.11276	-0.001221	-0.015259	-0.070343	-0.38666	-0.037842	0.000153	-0.032654	0.1091	-0.022736	0.008087	-0.005798	-0.22247	-0.002136	-0.23407	0.005646	0.008087	-0.012817
24.768	0.009308	0.007782	-0.092773	-0.009155	0.011902	0.080109	-0.034943	0.018921	-0.07019	0.097809	-0.019073	-0.021057	0.12451	-0.23025	0.11627	0.001373	-0.000305	-0.028381	-0.25894	-0.097504	0.020599	-0.00885	0.168	-0.018616	0.020599	-0.005188	-0.34546	-0.001984	-0.13641	0.089874	-0.00061	-0.021973
